<svg xmlns="http://www.w3.org/2000/svg" viewBox="0 0 320 64" width="320" height="64">
  <defs>
    <linearGradient id="g" x1="0%" y1="0%" x2="100%" y2="100%">
      <stop offset="0%" stop-color="#8B7355"/>
      <stop offset="50%" stop-color="#C2A878"/>
      <stop offset="100%" stop-color="#E8D5B7"/>
    </linearGradient>
    <linearGradient id="fg" x1="0%" y1="0%" x2="100%" y2="100%">
      <stop offset="0%" stop-color="#8B7355"/>
      <stop offset="40%" stop-color="#C2A878"/>
      <stop offset="100%" stop-color="#E8D5B7"/>
    </linearGradient>
    <filter id="gl">
      <feGaussianBlur stdDeviation="1.2" result="b"/>
      <feMerge><feMergeNode in="b"/><feMergeNode in="SourceGraphic"/></feMerge>
    </filter>
    <style type="text/css">
      @import url('https://fonts.googleapis.com/css2?family=Outfit:wght@900&amp;display=swap');
    </style>
  </defs>

  <g transform="translate(32, 32)">
    <g filter="url(#gl)">
      <path d="M -18 -24 Q -24 -24 -24 -18 L -24 -5 Q -24 0 -30 0 Q -24 0 -24 5 L -24 18 Q -24 24 -18 24"
            fill="none" stroke="url(#g)" stroke-width="2.4" stroke-linecap="round"/>
      <path d="M 18 -24 Q 24 -24 24 -18 L 24 -5 Q 24 0 30 0 Q 24 0 24 5 L 24 18 Q 24 24 18 24"
            fill="none" stroke="url(#g)" stroke-width="2.4" stroke-linecap="round"/>
    </g>
    <g filter="url(#gl)">
      <line x1="-16" y1="-11" x2="-4" y2="-11" stroke="#E8D5B7" stroke-width="2" stroke-linecap="round" opacity="0.7"/>
      <line x1="-2" y1="-11" x2="16" y2="-11" stroke="#8B7355" stroke-width="1.6" stroke-linecap="round" opacity="0.3"/>
      <line x1="-16" y1="0" x2="-8" y2="0" stroke="#D4B896" stroke-width="2" stroke-linecap="round" opacity="0.6"/>
      <line x1="-6" y1="0" x2="10" y2="0" stroke="#8B7355" stroke-width="1.6" stroke-linecap="round" opacity="0.28"/>
      <line x1="-16" y1="11" x2="0" y2="11" stroke="#C2A878" stroke-width="2" stroke-linecap="round" opacity="0.55"/>
      <line x1="2" y1="11" x2="16" y2="11" stroke="#6B5B3E" stroke-width="1.6" stroke-linecap="round" opacity="0.25"/>
    </g>
  </g>

  <g transform="translate(78, 46)">
    <text font-family="'Outfit', sans-serif" font-weight="900" font-size="44" letter-spacing="-2">
      <tspan fill="#f0f0f0">Open</tspan><tspan fill="url(#fg)">Spec</tspan>
    </text>
  </g>
</svg>
