<svg xmlns="http://www.w3.org/2000/svg" viewBox="0 0 64 64" width="64" height="64">
  <defs>
    <linearGradient id="g" x1="0%" y1="0%" x2="100%" y2="100%">
      <stop offset="0%" stop-color="#8B7355"/>
      <stop offset="50%" stop-color="#C2A878"/>
      <stop offset="100%" stop-color="#E8D5B7"/>
    </linearGradient>
    <filter id="gl">
      <feGaussianBlur stdDeviation="1" result="b"/>
      <feMerge><feMergeNode in="b"/><feMergeNode in="SourceGraphic"/></feMerge>
    </filter>
  </defs>
  <g filter="url(#gl)">
    <path d="M 14 8 Q 8 8 8 14 L 8 27 Q 8 32 2 32 Q 8 32 8 37 L 8 50 Q 8 56 14 56"
          fill="none" stroke="url(#g)" stroke-width="2.2" stroke-linecap="round"/>
    <path d="M 50 8 Q 56 8 56 14 L 56 27 Q 56 32 62 32 Q 56 32 56 37 L 56 50 Q 56 56 50 56"
          fill="none" stroke="url(#g)" stroke-width="2.2" stroke-linecap="round"/>
  </g>
  <g filter="url(#gl)">
    <line x1="16" y1="22" x2="28" y2="22" stroke="#E8D5B7" stroke-width="1.8" stroke-linecap="round" opacity="0.7"/>
    <line x1="30" y1="22" x2="48" y2="22" stroke="#8B7355" stroke-width="1.4" stroke-linecap="round" opacity="0.3"/>
    <line x1="16" y1="32" x2="24" y2="32" stroke="#D4B896" stroke-width="1.8" stroke-linecap="round" opacity="0.6"/>
    <line x1="26" y1="32" x2="42" y2="32" stroke="#8B7355" stroke-width="1.4" stroke-linecap="round" opacity="0.28"/>
    <line x1="16" y1="42" x2="32" y2="42" stroke="#C2A878" stroke-width="1.8" stroke-linecap="round" opacity="0.55"/>
    <line x1="34" y1="42" x2="48" y2="42" stroke="#6B5B3E" stroke-width="1.4" stroke-linecap="round" opacity="0.25"/>
  </g>
</svg>
